<?xml version="1.0" encoding="UTF-8"?><svg id="Layer_2" xmlns="http://www.w3.org/2000/svg" viewBox="0 0 59 59"><defs><style>.cls-1{fill:#fff;}</style></defs><g id="Layer_1-2"><rect class="cls-1" x="19.5" y="19.5" width="20" height="20"/><path class="cls-1" d="M10,0h0C15.52,0,20,4.48,20,10v10H10C4.48,20,0,15.52,0,10H0C0,4.48,4.48,0,10,0Z"/><path class="cls-1" d="M39,39h10c5.52,0,10,4.48,10,10h0c0,5.52-4.48,10-10,10h0c-5.52,0-10-4.48-10-10v-10h0Z"/><path class="cls-1" d="M10,39h10v10c0,5.52-4.48,10-10,10h0C4.48,59,0,54.52,0,49H0C0,43.48,4.48,39,10,39Z"/><path class="cls-1" d="M49,0h0C54.52,0,59,4.48,59,10h0c0,5.52-4.48,10-10,10h-10V10C39,4.48,43.48,0,49,0Z"/></g></svg>