<?xml version="1.0" encoding="UTF-8"?><svg id="Layer_2" xmlns="http://www.w3.org/2000/svg" viewBox="0 0 77.15 76.39"><defs><style>.cls-1{fill:#c53633;}</style></defs><g id="Layer_1-2"><g id="Layer_2-2"><g id="Layer_2-2"><path class="cls-1" d="M71.91,74.5c.38-.4,.81-.11,1.3-.54s.23-1,.76-1.52,.89-.31,1.3-.76,.26-1.28,.33-2.06c.1-.75,.39-1.46,.86-2.06,.07-.09,.1-.19,.1-.3v-4c0-.18-.11-.35-.28-.43-.27-.13-.51-.33-.68-.58-.21-.59-.28-1.22-.22-1.85,0-.27,0-.53,.16-.65s.52,0,.71,.06c.1,.01,.21,.01,.31,0v-1.9c-.01-.07-.01-.13,0-.2l.58-1.27c.01-.07,.01-.14,0-.21v-2.78c0-.45-.11-.9-.32-1.3-.11-.2-.22-.4-.28-.53-.04-.07-.06-.15-.06-.23v-1.55c.03-.51-.13-1.02-.46-1.41-.26-.28-.55-.58-.87-.89-1.77-1.75-1.93-1.65-4.34-3.91-.59-.62-1.26-1.16-2-1.59-1-.54-1.5-.48-2-1-.74-.75-.09-1.74-1.1-2.4-.78-.5-2.58-2.3-4.68-3.82-1.13-.81-2.16-1.3-2.45-1-1.08,1.23-1.22,1.58-3.62,4.67-1.41,1.81-1.57,1.5-2.17,2.6-1,1.88-.74,3.06-2,4.77-.61,.86-.81,.74-1.74,1.74-1.36,1.46-2.15,3.31-3.68,6.94-1.11,2.61-1.66,3.92-1.74,4.12-2.19,5.5-2.16,6.57-3.69,8.89-1.13,1.74-2,3-3.68,3.69-1,.38-1.09,.08-4.34,.65-1.83,.32-2.22,.48-2.82,.22-1.29-.75-1.98-2.22-1.73-3.69,.14-.92,.61-1.17,1.3-2.39,.65-1.22,1.09-2.54,1.3-3.9,.82-3.65,4.24-10.69,6.94-16.27,3.7-7.64,4.87-9,6.07-12.36,.82-2.28,2.06-6.6,3-7.59,.28-.26,.43-.62,.44-1-.02-.32-.22-.6-.51-.72-.32-.08-.5,.26-.79,.21s-.62-.94-.65-1.08c-.24-1-1.17-2.21-3-4.55-.92-1.16-1.05-.83-4.19-3.55-4.29-3.69-4.87-4.44-5.21-4.91-.71-1.18-1.54-2.28-2.48-3.29-1.05-1-1.57-1.14-2.1-2.13-.31-.85-.7-1.68-1.16-2.46-.35-.56-.85-1.01-1.44-1.3-.75-.24-1.57-.24-2.32,0-1.9,.2-3.82,.16-5.71-.11-.95,.06-1.89,.06-2.84,0-.32-.14-.68-.14-1,0-.36,.29-.18,.89-.43,1-.25,.11-1.1-.8-1.16-.87-.25-.3-.52-.58-.81-.84-.08-.08-.19-.13-.3-.14L9.02,.02c-.19-.03-.37-.03-.56,0l-1.37,.31c-.23-.19-.52-.3-.82-.31-.43,0-.73,.32-1.09,.43-.57,.18-.53,1-1.2,.52-.17-.12-1,1-2.3,1.31-.48,.14,.12,.82,0,1.09,.85,.46,1.73,.86,2.64,1.18,2.58,.9,2.62,.23,4.77,1.15,1.79,.77,2.88,1.72,4.48,1.74h1.74c0,.14,4.16,1.52,8.67,4.05,3.22,1.8,3.55,2.47,5.35,2.89,1.05,.11,2.05,.51,2.89,1.15,.66,.59,.79,1.09,1.59,1.45s1.5,.17,1.74,.58-.12,.93-.31,1.24c-.07,.14-.07,.3,0,.44,.19,.49,.45,.95,.78,1.36,1,1.27,2.11,1.3,2.31,2.16,.16,.68-.41,1-.86,2.17s-.26,2.1-.29,3.47c0,2.19-.71,2-1.74,6.22-.72,2.95-.55,3.68-1.44,4.48-.66,.59-1.29,.68-2.46,1.74-.55,.48-1.06,1.02-1.52,1.59,0,0-.77,.94-4.91,5.2-.69,.53-.92,1.16-.73,1.45s.33,.18,.6,.21,1.25,.34,3.36,1c.72,.22,.77,.25,.82,.33,.36,.6-.94,1.76-3,4.33-2.26,2.75-2.09,3.07-3.14,3.62s-3.36,1.45-4.3,1.24c-.23-.06-.48-.04-.7,.06-.3,.14-.4,.41-.55,.65-.32,.46-.77,.81-1.3,1-.21,.09-.65,.24-2.22-.11-1.86-.4-2.78-.6-3.42-1.24-.38-.53-.84-1-1.35-1.41-.32-.21-.65-.39-1-.54-1.49-.72-2-.88-2.38-1.09s-.86-.53-2.77-3.2c-1.27-1.78-1.79-2.6-1.79-2.6l-.31-.5v12.5c0,.18,.1,.35,.26,.44,.41,.22,.81,.45,1.2,.68,.95,.56,1.12,.87,1.08,1.08s-.59,.38-1.19,.65c-.48,.21-.9,.52-1.26,.9-.04,.06-.08,.12-.11,.19L.02,69.63c-.02,.07-.02,.15,0,.22,.42,4.67,0,3.29,3,4.52,.2,.05,.41,.07,.62,.08,.33,.07,.66,.11,1,.11,.55,0,.59-.15,1.06-.17,.57,.05,1.13,.15,1.68,.3,.76,.11,.71,0,1,.08,.45,.15,.21,1,1,1h30.77c1.39,0,2.83,.44,4.22,.44,.9,0,2.2,.32,3,0,1.84-.71,1.34-.91,1.52-1.83,.1-.53,.29-.87,.46-.85s.33,.74,.47,.72,0-1.37,.4-1.55,.69,1.15,1.59,1.3c.41,.07,.53-.24,.87-.18s.58,.45,.77,1c.4,.91,1.28,1.52,2.27,1.57h4.1c.24,0,.46-.17,.5-.41,.04-.28,.1-.55,.17-.82,.36-.6,.55-1.3,.54-2,0-.53-.44-.87-.27-1.2s.73-.38,.73-.38c.09,.09,.17,.19,.24,.3,.23,.37,.15,.59,.33,1.09,.06,.26,.2,.49,.4,.67,.24,.18,.4,.13,.68,.27s.31,.55,.63,.66h.46c.29,0,.58,.02,.86,.08,.46,.14,.87,.44,1.14,.84,.12,.12,.24,.22,.35,.32h3.94c.36,0,.72-.04,1.07-.1-.07-.43,.04-.87,.32-1.21Z"/><path class="cls-1" d="M50.12,10.81c.41,.55,.8,1.05,1.3,1,.71-.05,1-1.14,1.88-3,0,0,1.38-2.86,3.47-6.94,.27-.54,.8-.62,.8-1.66h-4.33c-.48,.43-1.06,.75-1.68,.94-.64,.11-.07-.51-6.18-.47-1.71,0-1.66,.91-1.77,1.19-.25,.64,.75,1.29,2.17,3,1.14,1.42,1.6,2.36,4.34,5.94Z"/><path class="cls-1" d="M68.22,.19c-.8,.53-1.54,1.14-2.2,1.83-.68,.74-1.26,1.57-1.73,2.46-.35,.68-.27,.73-.73,1.74-.45,1.27-1.12,2.45-2,3.47-.81,.79-1.1,.64-1.74,1.44-.44,.67-.78,1.4-1,2.17-.65,1.51-1.4,1.57-2.89,3.33-.9,1.24-1.73,2.55-2.46,3.9-1.27,2.16-1.91,3.24-2.31,4.05-1.35,2.74-1.38,3.74-2.89,6.22-.4,.65-.52,.76-1.16,1.73-.73,1.12-2.18,3.39-3.9,6.51-1.09,1.95-2.08,3.89-5.93,12-3.28,6.9-3.89,8.31-3.76,8.38s1.3-2.36,4.05-6.07c1.89-2.55,5.12-6.58,6.07-8.1,.55-.88,.88-1.46,1.59-2.45,1.46-2,3.06-3.89,4.79-5.67,0,0,2.21-2.44,2.32-3.33,.08-.74,.38-1.44,.86-2,.1-.09,.14-.09,.37-.26,1.09-.76,2.1-1.65,3-2.63,.74-.91,1.61-1.69,2.6-2.32,.93-.26,1.89-.46,2.85-.57,1.36-.2,2.7-.53,4-1,1.23-.66,1.88-1.42,2.46-1.15s.1,1.53,1.15,2.74c.55,.57,1.18,1.04,1.88,1.41,1,.62,1.25,.47,1.59,.87,.81,.93,.38,2.23,1.2,3.05,.52,.52,1.43,1.41,2.26,2.29v-1l.3-.41c.21-.68,.1-1.41-.3-2V6.19c-.09-1.54-.48-3.05-1.15-4.44-1-1.56-.79-.5-4.85-1.56h-2.34Z"/><path class="cls-1" d="M3.74,6.72c-.68-.7-1-1-1.45-1.45l-1-1c-.22,.62-.33,1.27-.34,1.92,0,3.44-.32,6.36,0,9.79-1,.95,0,1.77-.46,5.57-.1,.86,.46,6,0,8.91-.24,.9-.19,1.86,.15,2.73,.14,.41-.61,2.27-.61,3.36,0,0,.78,3.84,.93,5.29,0-.2,.6-.21,.88-.27s.66-.59,.91-.68c2.2-.8,2.3-1.63,4-3.38,0,0,0-.45,.07-1-.01-.5,.06-1.01,.2-1.49,.12-.33,.32-.62,.58-.86,.31-.28,.45-.17,.8-.44s.36-.48,.72-.87c.25-.26,.55-.48,.87-.65,1.05-.63,2.43-3,4.19-5,1.28-1.6,2.71-3.08,4.27-4.41,.24-.15,.42-.38,.5-.65,.02-.46-.16-.91-.5-1.23-1.86-2.16-3-3.45-4.56-4.05-.42-.13-.79-.38-1.08-.72-.4-.52-.18-.78-.51-1.23-.51-.71-1.3-.42-2-1.23-.28-.32-.17-.37-.44-.73-.93-1.25-2.51-.87-3.25-1.87-.19-.27-.63-.86-.56-1.33,.01-.04,.01-.08,0-.12-.19-.23-1.54,.79-1.73,.58s.75-.91,.72-1.81c-.02-.33-.23-.59-1.3-1.68Z"/><path class="cls-1" d="M9.63,40.74c-.24,.58-1.31,.81-1.3,1.45,0,.35,.27,.68,1.3,1.44,.78,.59,1.6,1.12,2.46,1.59,1.39,.79,2.9,1.33,4.48,1.59,1.38,.18,1.81,0,2-.29,.3-.43,.5-.92,.58-1.44,.25-.35,.56-.64,.93-.86,.88-.27,1.69-.71,2.39-1.31,1.8-1.29,3.34-2.91,4.55-4.77,.76-1.13,1.26-2.41,1.45-3.76,.09-1.07-.01-2.14-.29-3.18-.17-1.58-.76-3.08-1.73-4.34-.51-.56-.82-.67-1.59-1.59-.65-.76-.8-1.12-1.16-1.15-.6-.07-1.11,.8-1.74,1.73-.82,1.17-1.84,2.17-2.64,3.33-2.1,3.05-2.41,3-6.36,7.51-2.6,2.98-2.86,2.95-3.33,4.05Z"/></g></g></g></svg>