<?xml version="1.0" encoding="UTF-8"?><svg id="Layer_2" xmlns="http://www.w3.org/2000/svg" viewBox="0 0 705.25 705.25"><defs><style>.cls-1{stroke:#000;stroke-miterlimit:10;stroke-width:5px;}</style></defs><g id="Layer_1-2"><g><g id="_Radial_Repeat_"><path class="cls-1" d="M202.63,552.76c0,82.84,67.16,150,150.01,149.99,82.84,0,150-67.16,149.99-150.01,0-.08,0-.17,0-.25h0s0-150,0-150H202.63s0,150.01,0,150.01h0c0,.08,0,.17,0,.25Zm25-.23v-125s249.99-.01,249.99-.01v125s0,0,0,0c0,.07,0,.14,0,.21,0,69.04-55.96,125-124.99,125.01-69.04,0-125-55.96-125.01-124.99,0-.07,0-.14,0-.21h0Z"/></g><g id="_Radial_Repeat_-2"><path class="cls-1" d="M152.49,202.63c-82.84,0-150,67.16-149.99,150.01,0,82.84,67.16,150,150.01,149.99,.08,0,.17,0,.25,0h0s150,0,150,0V202.63s-150.01,0-150.01,0h0c-.08,0-.17,0-.25,0Zm.23,25h125s.01,249.99,.01,249.99h-125s0,0,0,0c-.07,0-.14,0-.21,0-69.04,0-125-55.96-125.01-124.99,0-69.04,55.96-125,124.99-125.01,.07,0,.14,0,.21,0h0Z"/></g><g id="_Radial_Repeat_-3"><path class="cls-1" d="M502.62,152.49c0-82.84-67.16-150-150.01-149.99-82.84,0-150,67.16-149.99,150.01,0,.08,0,.17,0,.25h0s0,150,0,150H502.62s0-150.01,0-150.01h0c0-.08,0-.17,0-.25Zm-25,.23v125s-249.99,.01-249.99,.01v-125s0,0,0,0c0-.07,0-.14,0-.21,0-69.04,55.96-125,124.99-125.01,69.04,0,125,55.96,125.01,124.99,0,.07,0,.14,0,.21h0Z"/></g><g id="_Radial_Repeat_-4"><path class="cls-1" d="M552.76,502.62c82.84,0,150-67.16,149.99-150.01,0-82.84-67.16-150-150.01-149.99-.08,0-.17,0-.25,0h0s-150,0-150,0V502.62s150.01,0,150.01,0h0c.08,0,.17,0,.25,0Zm-.23-25h-125s-.01-249.99-.01-249.99h125s0,0,0,0c.07,0,.14,0,.21,0,69.04,0,125,55.96,125.01,124.99,0,69.04-55.96,125-124.99,125.01-.07,0-.14,0-.21,0h0Z"/></g></g></g></svg>