<?xml version="1.0" encoding="UTF-8"?><svg id="Layer_2" xmlns="http://www.w3.org/2000/svg" viewBox="0 0 75.15 75.15"><defs><style>.cls-1{fill:#fff;}</style></defs><g id="Layer_1-2"><rect class="cls-1" x="27.58" y="27.58" width="20" height="20" transform="translate(-15.56 37.58) rotate(-45)"/><path class="cls-1" d="M10,27.58h0c5.52,0,10,4.48,10,10v10H10C4.48,47.58,0,43.1,0,37.58H0C0,32.06,4.48,27.58,10,27.58Z" transform="translate(-23.64 18.08) rotate(-45)"/><path class="cls-1" d="M55.15,27.58h10c5.52,0,10,4.48,10,10h0c0,5.52-4.48,10-10,10h0c-5.52,0-10-4.48-10-10v-10h0Z" transform="translate(-7.49 57.08) rotate(-45)"/><path class="cls-1" d="M37.58,55.15h10v10c0,5.52-4.48,10-10,10h0c-5.52,0-10-4.48-10-10h0c0-5.52,4.48-10,10-10Z" transform="translate(-35.06 45.65) rotate(-45)"/><path class="cls-1" d="M37.58,0h0C43.1,0,47.58,4.48,47.58,10h0c0,5.52-4.48,10-10,10h-10V10C27.58,4.48,32.06,0,37.58,0Z" transform="translate(3.94 29.5) rotate(-45)"/></g></svg>